<svg xmlns="http://www.w3.org/2000/svg" version="1.1" xmlns:xlink="http://www.w3.org/1999/xlink" width="1500" height="647" viewBox="0 0 1500 647"><svg xml:space="preserve" width="1500" height="647" data-version="2" data-id="lg_POeeBWHBlHzWVtp2Pj" viewBox="0 0 798 647" x="0" y="0"><rect width="100%" height="100%" fill="none"></rect><path fill="#1e40af" d="m580.392 398.627-61.58 34.096a256.8 256.8 0 0 1-248.211 0l-75.58-41.826c.945 35.041-.515 72.316-14.772 102.032-3.951 8.074-11.853 15.46-11.68 25.251.17 13.484 15.459 15.803 26.624 13.742 0 0 65.273-12.54 155.711 76.009 8.932 8.846 17.779 17.091 29.974 21.471 23.79 8.331 41.483-6.183 57.802-21.643a334.955 334.955 0 0 1 36.072-28.342c29.888-21.214 67.85-47.753 106.069-48.44 0 0 49.213 10.736 20.613-34.87 0 0-13.141-42.256-21.042-97.48M94.105 364.616l-14.343 85.886v114.486h57.286V450.502l-14.343-85.886v-79.273l-28.6-15.889z"></path><path fill="#1e40af" d="M768.31 185.288 491.07 31.552a198.397 198.397 0 0 0-192.728 0L21.102 185.288c-17.177 9.447-17.177 34.354 0 43.802l73.003 40.366v-62.353h329.201v28.686H122.705v49.556l175.637 97.309a199.256 199.256 0 0 0 192.728 0L768.31 229.09c17.177-9.534 17.177-34.355 0-43.802"></path></svg></svg>