<svg xmlns="http://www.w3.org/2000/svg" version="1.1" xmlns:xlink="http://www.w3.org/1999/xlink" width="1500" height="141" viewBox="0 0 1500 141"><svg xml:space="preserve" width="1500" height="141" data-version="2" data-id="lg_POeeBWHBlHzWVtp2Pj" viewBox="0 0 173 141" x="0" y="0"><rect width="100%" height="100%" fill="transparent"></rect><path fill="#1e40af" d="m125.874 86.807-13.367 7.401a55.743 55.743 0 0 1-53.878 0L42.223 85.13c.205 7.607-.112 15.698-3.207 22.148-.857 1.753-2.572 3.356-2.535 5.481.037 2.927 3.356 3.43 5.78 2.983 0 0 14.168-2.722 33.8 16.5 1.938 1.92 3.858 3.71 6.505 4.66 5.165 1.808 9.005-1.342 12.547-4.698a72.708 72.708 0 0 1 7.83-6.152c6.488-4.605 14.728-10.366 23.024-10.515 0 0 10.683 2.33 4.475-7.57 0 0-2.853-9.171-4.568-21.159M20.318 79.425l-3.114 18.643v24.85H29.64v-24.85l-3.113-18.643V62.217l-6.208-3.449z"></path><path fill="#1e40af" d="m166.665 40.499-60.18-33.371a43.065 43.065 0 0 0-41.834 0L4.47 40.498c-3.729 2.052-3.729 7.458 0 9.509l15.847 8.762V45.234h71.458v6.227h-65.25v10.757L64.65 83.341a43.252 43.252 0 0 0 41.834 0l60.18-33.334c3.729-2.07 3.729-7.457 0-9.508"></path></svg></svg>